<svg width="24" height="24" viewBox="0 0 24 24" fill="none" xmlns="http://www.w3.org/2000/svg">
<path d="M11.6551 0.167969C5.30713 0.167969 0.166626 5.31997 0.166626 11.668C0.166626 18.016 5.30713 23.168 11.6551 23.168C18.0146 23.168 23.1666 18.016 23.1666 11.668C23.1666 5.31997 18.0146 0.167969 11.6551 0.167969ZM11.6666 20.868C6.58363 20.868 2.46663 16.751 2.46663 11.668C2.46663 6.58497 6.58363 2.46797 11.6666 2.46797C16.7496 2.46797 20.8666 6.58497 20.8666 11.668C20.8666 16.751 16.7496 20.868 11.6666 20.868Z" fill="#08538C"/>
<path d="M12.2416 5.91406H10.5166V12.8141L16.5541 16.4366L17.4166 15.0221L12.2416 11.9516V5.91406Z" fill="#08538C"/>
</svg>
