<svg width="50" height="52" viewBox="0 0 50 52" fill="none" xmlns="http://www.w3.org/2000/svg">
<path d="M28.3447 1.75412C28.3447 0.788273 29.2399 0 30.3548 0C31.4697 0 32.3649 0.783941 32.3649 1.75412V9.42895C32.3649 10.3948 31.4697 11.1831 30.3548 11.1831C29.2399 11.1831 28.3447 10.3991 28.3447 9.42895V1.75412ZM37.1786 24.7006C38.9119 24.7006 40.568 25.0688 42.0817 25.7358C43.6564 26.4288 45.0684 27.4423 46.2484 28.6983C47.4284 29.9544 48.3805 31.4616 49.0316 33.1291C49.6582 34.7403 50.0041 36.5031 50.0041 38.3482C50.0041 40.1932 49.6582 41.956 49.0316 43.5672C48.3805 45.2434 47.4284 46.7463 46.2484 48.0023C45.0684 49.2584 43.6523 50.2719 42.0858 50.9649C40.5721 51.6319 38.916 52 37.1826 52C35.4492 52 33.7931 51.6319 32.2795 50.9649C30.7048 50.2719 29.2928 49.2584 28.1128 48.0023C26.9328 46.7463 25.9806 45.239 25.3296 43.5672C24.703 41.956 24.3571 40.1932 24.3571 38.3482C24.3571 36.5031 24.703 34.7403 25.3296 33.1291C25.9806 31.4529 26.9328 29.95 28.1128 28.694C29.2928 27.4379 30.7088 26.4245 32.2754 25.7315C33.7891 25.0688 35.4411 24.7006 37.1786 24.7006ZM36.2183 32.644C36.2183 32.3148 36.3444 32.016 36.5479 31.7994C36.7513 31.5829 37.0321 31.4486 37.3454 31.4486C37.6587 31.4486 37.9395 31.5829 38.1429 31.7994C38.3464 32.016 38.4725 32.3148 38.4725 32.6483V39.0325L42.9565 41.8651L42.9932 41.8911C43.2414 42.06 43.4041 42.3155 43.4692 42.597C43.5384 42.8916 43.5059 43.2121 43.3553 43.4893L43.3472 43.5023C43.339 43.5196 43.3309 43.5326 43.3187 43.5456C43.16 43.8054 42.9199 43.9787 42.6595 44.048C42.3828 44.1216 42.0817 44.087 41.8213 43.9267L36.8083 40.7693C36.6333 40.6697 36.4868 40.5181 36.381 40.3405C36.2752 40.1586 36.2142 39.9464 36.2142 39.7211L36.2183 32.644ZM44.6574 30.3875C43.6808 29.348 42.5171 28.5121 41.2272 27.9447C39.9821 27.3946 38.6149 27.0958 37.1786 27.0958C35.7422 27.0958 34.375 27.399 33.1299 27.9447C31.84 28.5121 30.6763 29.348 29.6997 30.3875C28.7231 31.427 27.9378 32.6657 27.4048 34.0386C26.888 35.364 26.6073 36.8193 26.6073 38.3482C26.6073 39.8771 26.8921 41.3323 27.4048 42.6577C27.9378 44.0307 28.7231 45.2694 29.6997 46.3088C30.6763 47.3483 31.84 48.1842 33.1299 48.7516C34.375 49.3017 35.7422 49.6005 37.1786 49.6005C38.6149 49.6005 39.9821 49.2974 41.2272 48.7516C42.5171 48.1842 43.6808 47.3483 44.6574 46.3088C46.5739 44.2689 47.7539 41.4579 47.7539 38.3482C47.7539 36.8193 47.4691 35.364 46.9564 34.0386C46.4193 32.6657 45.634 31.427 44.6574 30.3875ZM5.47282 24.8436C5.35889 24.8436 5.25716 24.3108 5.25716 23.6568C5.25716 23.0028 5.34668 22.4744 5.47282 22.4744H10.9578C11.0718 22.4744 11.1735 23.0072 11.1735 23.6568C11.1735 24.3108 11.084 24.8436 10.9578 24.8436H5.47282ZM14.2171 24.8436C14.1032 24.8436 14.0015 24.3108 14.0015 23.6568C14.0015 23.0028 14.091 22.4744 14.2171 22.4744H19.7021C19.8161 22.4744 19.9178 23.0072 19.9178 23.6568C19.9178 24.3108 19.8283 24.8436 19.7021 24.8436H14.2171ZM22.9614 24.8436C22.8475 24.8436 22.7458 24.3108 22.7458 23.6568C22.7458 23.0028 22.8353 22.4744 22.9614 22.4744H28.4465C28.5604 22.4744 28.6621 23.0028 28.6621 23.6525C28.1128 24.0163 27.5838 24.4148 27.0793 24.8436H22.9614ZM5.48503 31.6349C5.37109 31.6349 5.26937 31.1021 5.26937 30.4481C5.26937 29.7941 5.35889 29.2614 5.48503 29.2614H10.9701C11.084 29.2614 11.1857 29.7941 11.1857 30.4481C11.1857 31.1021 11.0962 31.6349 10.9701 31.6349H5.48503ZM14.2293 31.6349C14.1154 31.6349 14.0137 31.1021 14.0137 30.4481C14.0137 29.7941 14.1032 29.2614 14.2293 29.2614H19.7144C19.8283 29.2614 19.93 29.7941 19.93 30.4481C19.93 31.1021 19.8405 31.6349 19.7144 31.6349H14.2293ZM5.49723 38.4305C5.3833 38.4305 5.28158 37.8977 5.28158 37.2437C5.28158 36.5897 5.37109 36.057 5.49723 36.057H10.9823C11.0962 36.057 11.1979 36.5897 11.1979 37.2437C11.1979 37.8977 11.1084 38.4305 10.9823 38.4305H5.49723ZM14.2415 38.4305C14.1276 38.4305 14.0259 37.8977 14.0259 37.2437C14.0259 36.5897 14.1154 36.057 14.2415 36.057H19.7266C19.8405 36.057 19.9422 36.5897 19.9422 37.2437C19.9422 37.8977 19.8527 38.4305 19.7266 38.4305H14.2415ZM10.2905 1.75412C10.2905 0.788273 11.1857 0 12.3006 0C13.4155 0 14.3107 0.783941 14.3107 1.75412V9.42895C14.3107 10.3948 13.4115 11.1831 12.3006 11.1831C11.1857 11.1831 10.2905 10.3991 10.2905 9.42895V1.75412ZM2.21354 16.7789H40.4948V7.94336C40.4948 7.64018 40.3809 7.37598 40.1978 7.18108C40.0147 6.98617 39.7542 6.8649 39.4816 6.8649H35.8114C35.1969 6.8649 34.6965 6.33217 34.6965 5.67816C34.6965 5.02415 35.1969 4.49142 35.8114 4.49142H39.4816C40.3809 4.49142 41.1865 4.87689 41.7765 5.50491C42.3665 6.13293 42.7287 6.99051 42.7287 7.94769V21.9763C41.9963 21.7078 41.2435 21.4913 40.4704 21.331V19.1394H40.4948H2.21354V42.021C2.21354 42.3242 2.32747 42.5884 2.51058 42.7833C2.69369 42.9782 2.9541 43.0995 3.22673 43.0995H21.4193C21.6268 43.9224 21.8872 44.7236 22.2005 45.4946H3.24707C2.35189 45.4946 1.54216 45.1091 0.952148 44.4811C0.362142 43.8574 0 42.9998 0 42.0426V7.95202C0 6.99917 0.362142 6.13727 0.952148 5.50925C1.54216 4.88123 2.34782 4.49575 3.24707 4.49575H7.16553C7.77995 4.49575 8.28044 5.02849 8.28044 5.68249C8.28044 6.3365 7.77995 6.86923 7.16553 6.86923H3.24707C2.96224 6.86923 2.71403 6.99051 2.53092 7.18541C2.34782 7.38031 2.23389 7.65751 2.23389 7.94769V16.7833H2.21354V16.7789ZM17.5252 6.8649C16.9108 6.8649 16.4103 6.33217 16.4103 5.67816C16.4103 5.02415 16.9108 4.49142 17.5252 4.49142H24.9959C25.6104 4.49142 26.1108 5.02415 26.1108 5.67816C26.1108 6.33217 25.6104 6.8649 24.9959 6.8649H17.5252Z" fill="#444444"/>
</svg>
