<svg width="48" height="48" viewBox="0 0 48 48" fill="none" xmlns="http://www.w3.org/2000/svg">
<path fill-rule="evenodd" clip-rule="evenodd" d="M24.0418 47.9167C37.2737 47.9167 48.0002 37.1902 48.0002 23.9583C48.0002 10.7265 37.2737 0 24.0418 0C10.81 0 0.0834961 10.7265 0.0834961 23.9583C0.0834961 37.1902 10.81 47.9167 24.0418 47.9167ZM24.0418 45.8333C36.1231 45.8333 45.9168 36.0396 45.9168 23.9583C45.9168 11.8771 36.1231 2.08333 24.0418 2.08333C11.9606 2.08333 2.16683 11.8771 2.16683 23.9583C2.16683 36.0396 11.9606 45.8333 24.0418 45.8333ZM15.203 34.2703L13.7298 32.7972L22.5687 23.9583L13.7298 15.1195L15.203 13.6463L24.0418 22.4852L32.8806 13.6463L34.3538 15.1195L25.5149 23.9583L34.3538 32.7972L32.8806 34.2703L24.0418 25.4315L15.203 34.2703Z" fill="#444444"/>
</svg>
