<svg width="44" height="45" viewBox="0 0 44 45" fill="none" xmlns="http://www.w3.org/2000/svg">
<path d="M21.3603 36.3944C29.1236 36.3944 35.4403 30.0777 35.4403 22.3144C35.4403 14.551 29.1236 8.23438 21.3603 8.23438C13.5969 8.23438 7.28027 14.551 7.28027 22.3144C7.28027 30.0777 13.5969 36.3944 21.3603 36.3944ZM21.3603 9.99438C28.1539 9.99438 33.6803 15.5208 33.6803 22.3144C33.6803 29.108 28.1539 34.6344 21.3603 34.6344C14.5667 34.6344 9.04027 29.108 9.04027 22.3144C9.04027 15.5208 14.5676 9.99438 21.3603 9.99438Z" fill="#08538C"/>
<path d="M26.1626 28.3606C26.3342 28.5322 26.5595 28.6185 26.7848 28.6185C27.0101 28.6185 27.2353 28.5322 27.4069 28.3606C27.751 28.0165 27.751 27.4604 27.4069 27.1163L22.2405 21.9498V12.4493C22.2405 11.9636 21.8471 11.5693 21.3605 11.5693C20.8738 11.5693 20.4805 11.9636 20.4805 12.4493V22.3141C20.4805 22.5473 20.5729 22.7717 20.7383 22.9363L26.1626 28.3606Z" fill="#08538C"/>
</svg>
