<svg width="24" height="24" viewBox="0 0 24 24" fill="none" xmlns="http://www.w3.org/2000/svg">
<path fill-rule="evenodd" clip-rule="evenodd" d="M23.5 11.75C23.5 18.2393 18.2393 23.5 11.75 23.5C5.26065 23.5 0 18.2393 0 11.75C0 5.26065 5.26065 0 11.75 0C18.2393 0 23.5 5.26065 23.5 11.75ZM7.45381 7.45378C7.74671 7.16089 8.22158 7.16089 8.51447 7.45378L11.7479 10.6872L14.9813 7.45383C15.2742 7.16094 15.7491 7.16094 16.042 7.45383C16.3349 7.74672 16.3349 8.2216 16.042 8.51449L12.8086 11.7479L16.042 14.9813C16.3349 15.2742 16.3349 15.7491 16.042 16.042C15.7491 16.3349 15.2742 16.3349 14.9813 16.042L11.7479 12.8086L8.51448 16.042C8.22158 16.3349 7.74671 16.3349 7.45382 16.042C7.16092 15.7491 7.16092 15.2742 7.45382 14.9814L10.6873 11.7479L7.45381 8.51444C7.16092 8.22155 7.16092 7.74667 7.45381 7.45378Z" fill="#08538C"/>
</svg>
