<svg width="25" height="25" viewBox="0 0 25 25" fill="none" xmlns="http://www.w3.org/2000/svg">
<path fill-rule="evenodd" clip-rule="evenodd" d="M17.3647 13.6758C18.7918 14.6445 19.7918 15.957 19.7918 17.707V20.832H23.9585V17.707C23.9585 15.4362 20.2397 14.0924 17.3647 13.6758Z" fill="#08538C"/>
<path d="M9.37516 12.4993C11.6763 12.4993 13.5418 10.6339 13.5418 8.33268C13.5418 6.0315 11.6763 4.16602 9.37516 4.16602C7.07398 4.16602 5.2085 6.0315 5.2085 8.33268C5.2085 10.6339 7.07398 12.4993 9.37516 12.4993Z" fill="#08538C"/>
<path fill-rule="evenodd" clip-rule="evenodd" d="M15.6252 12.4993C17.9272 12.4993 19.7918 10.6348 19.7918 8.33268C19.7918 6.0306 17.9272 4.16602 15.6252 4.16602C15.1356 4.16602 14.6772 4.27018 14.2397 4.41602C15.1043 5.48893 15.6252 6.85352 15.6252 8.33268C15.6252 9.81185 15.1043 11.1764 14.2397 12.2493C14.6772 12.3952 15.1356 12.4993 15.6252 12.4993Z" fill="#08538C"/>
<path fill-rule="evenodd" clip-rule="evenodd" d="M9.37508 13.541C6.59383 13.541 1.04175 14.9368 1.04175 17.7077V20.8327H17.7084V17.7077C17.7084 14.9368 12.1563 13.541 9.37508 13.541Z" fill="#08538C"/>
</svg>
