<svg width="23" height="19" viewBox="0 0 23 19" fill="none" xmlns="http://www.w3.org/2000/svg">
<path d="M20.9091 1.02273C19.7486 0.656818 18.4732 0.5 17.25 0.5C15.2114 0.5 13.0159 0.918182 11.5 2.06818C9.98409 0.918182 7.78864 0.5 5.75 0.5C3.71136 0.5 1.51591 0.918182 0 2.06818V18.2727C1.51591 17.1227 3.71136 16.7045 5.75 16.7045C7.78864 16.7045 9.98409 17.1227 11.5 18.2727C13.0159 17.1227 15.2114 16.7045 17.25 16.7045C18.4732 16.7045 19.7486 16.8614 20.9091 17.2273C21.6932 17.4886 22.3727 17.8023 23 18.2727V2.06818C22.3727 1.59773 21.6932 1.28409 20.9091 1.02273ZM20.9091 15.1364C19.7591 14.7705 18.5045 14.6136 17.25 14.6136C15.4727 14.6136 12.9114 15.2932 11.5 16.1818V4.15909C12.9114 3.27045 15.4727 2.59091 17.25 2.59091C18.5045 2.59091 19.7591 2.74773 20.9091 3.11364V15.1364Z" fill="#08538C"/>
<path d="M17.25 6.77131C18.17 6.77131 19.0586 6.8654 19.8636 7.04313V5.45403C19.0377 5.29722 18.149 5.20312 17.25 5.20312C15.4727 5.20312 13.8627 5.50631 12.5454 6.07085V7.80631C13.7268 7.13722 15.3681 6.77131 17.25 6.77131Z" fill="#08538C"/>
<path d="M12.5454 8.8521V10.5876C13.7268 9.91847 15.3681 9.55256 17.25 9.55256C18.17 9.55256 19.0586 9.64665 19.8636 9.82438V8.23528C19.0377 8.07847 18.149 7.98438 17.25 7.98438C15.4727 7.98438 13.8627 8.29801 12.5454 8.8521Z" fill="#08538C"/>
<path d="M17.25 10.7773C15.4727 10.7773 13.8627 11.0805 12.5454 11.6451V13.3805C13.7268 12.7114 15.3681 12.3455 17.25 12.3455C18.17 12.3455 19.0586 12.4396 19.8636 12.6173V11.0283C19.0377 10.861 18.149 10.7773 17.25 10.7773Z" fill="#08538C"/>
</svg>
