<svg width="23" height="13" viewBox="0 0 23 13" fill="none" xmlns="http://www.w3.org/2000/svg">
<path d="M23 2.09091C23 3.24091 22.0591 4.18182 20.9091 4.18182C20.7209 4.18182 20.5432 4.16091 20.3759 4.10864L16.6541 7.82C16.7064 7.98727 16.7273 8.17546 16.7273 8.36364C16.7273 9.51364 15.7864 10.4545 14.6364 10.4545C13.4864 10.4545 12.5455 9.51364 12.5455 8.36364C12.5455 8.17546 12.5664 7.98727 12.6186 7.82L9.95273 5.15409C9.78545 5.20636 9.59727 5.22727 9.40909 5.22727C9.22091 5.22727 9.03273 5.20636 8.86545 5.15409L4.10864 9.92136C4.16091 10.0886 4.18182 10.2664 4.18182 10.4545C4.18182 11.6045 3.24091 12.5455 2.09091 12.5455C0.940909 12.5455 0 11.6045 0 10.4545C0 9.30455 0.940909 8.36364 2.09091 8.36364C2.27909 8.36364 2.45682 8.38455 2.62409 8.43682L7.39136 3.68C7.33909 3.51273 7.31818 3.32455 7.31818 3.13636C7.31818 1.98636 8.25909 1.04545 9.40909 1.04545C10.5591 1.04545 11.5 1.98636 11.5 3.13636C11.5 3.32455 11.4791 3.51273 11.4268 3.68L14.0927 6.34591C14.26 6.29364 14.4482 6.27273 14.6364 6.27273C14.8245 6.27273 15.0127 6.29364 15.18 6.34591L18.8914 2.62409C18.8391 2.45682 18.8182 2.27909 18.8182 2.09091C18.8182 0.940909 19.7591 0 20.9091 0C22.0591 0 23 0.940909 23 2.09091Z" fill="#08538C"/>
</svg>
