<svg width="28" height="27" viewBox="0 0 28 27" fill="none" xmlns="http://www.w3.org/2000/svg">
<path d="M13.9563 14.6248C17.8633 14.6248 21.0323 11.6822 21.0323 8.05429C21.0323 4.42639 17.8633 1.50391 13.9563 1.50391C10.0494 1.50391 6.88037 4.44654 6.88037 8.05429C6.88037 11.662 10.0494 14.6248 13.9563 14.6248ZM13.9563 3.21708C16.8215 3.21708 19.1656 5.39383 19.1656 8.05429C19.1656 10.7148 16.8215 12.8915 13.9563 12.8915C11.0912 12.8915 8.74704 10.7148 8.74704 8.05429C8.74704 5.39383 11.0912 3.21708 13.9563 3.21708Z" fill="#08538C"/>
<path d="M1.71458 24.8835H26.2851C26.8061 24.8835 27.2185 24.5006 27.2185 24.0168C27.2185 19.482 23.2464 15.7734 18.3409 15.7734H9.65877C4.77505 15.7734 0.78125 19.4618 0.78125 24.0168C0.78125 24.5006 1.19365 24.8835 1.71458 24.8835ZM9.65877 17.5068H18.3409C21.9006 17.5068 24.8309 19.9657 25.2867 23.1502H2.71303C3.16885 19.9858 6.09908 17.5068 9.65877 17.5068Z" fill="#08538C"/>
</svg>
