<svg width="44" height="49" viewBox="0 0 44 49" fill="none" xmlns="http://www.w3.org/2000/svg">
<path d="M21.9309 27.1967C28.0704 27.1967 33.0503 21.6509 33.0503 14.8137C33.0503 7.9765 28.0704 2.46875 21.9309 2.46875C15.7914 2.46875 10.8115 8.01449 10.8115 14.8137C10.8115 21.6129 15.7914 27.1967 21.9309 27.1967ZM21.9309 5.69743C26.4332 5.69743 30.1169 9.79976 30.1169 14.8137C30.1169 19.8277 26.4332 23.93 21.9309 23.93C17.4286 23.93 13.7449 19.8277 13.7449 14.8137C13.7449 9.79976 17.4286 5.69743 21.9309 5.69743Z" fill="#444444"/>
<path d="M2.69421 46.5313H41.3051C42.1237 46.5313 42.7717 45.8096 42.7717 44.898C42.7717 36.3515 36.5299 29.3623 28.8213 29.3623H15.1779C7.50351 29.3623 1.22754 36.3135 1.22754 44.898C1.22754 45.8096 1.8756 46.5313 2.69421 46.5313ZM15.1779 32.629H28.8213C34.4151 32.629 39.0198 37.2631 39.7361 43.2646H4.2632C4.97948 37.3011 9.58413 32.629 15.1779 32.629Z" fill="#444444"/>
</svg>
