<svg width="29" height="25" viewBox="0 0 29 25" fill="none" xmlns="http://www.w3.org/2000/svg">
<g clip-path="url(#clip0_377_209)">
<path d="M22.3543 19.6943H6.646" stroke="#08538C" stroke-linecap="round" stroke-linejoin="round"/>
<path d="M14.5 20.9443C14.3208 20.9443 14.1455 20.9883 13.9965 21.0707C13.8475 21.1531 13.7313 21.2703 13.6627 21.4073C13.5941 21.5444 13.5762 21.6952 13.6112 21.8407C13.6461 21.9861 13.7324 22.1198 13.8592 22.2247C13.9859 22.3296 14.1474 22.401 14.3232 22.4299C14.499 22.4589 14.6812 22.444 14.8468 22.3872C15.0124 22.3305 15.1539 22.2344 15.2535 22.111C15.3531 21.9877 15.4062 21.8427 15.4062 21.6943C15.4064 21.5958 15.3831 21.4982 15.3376 21.4072C15.2921 21.3161 15.2254 21.2334 15.1412 21.1637C15.057 21.094 14.957 21.0388 14.847 21.0012C14.737 20.9635 14.6191 20.9442 14.5 20.9443Z" fill="#08538C"/>
<path d="M19.9377 0.694336H9.06266C7.72797 0.694336 6.646 1.58977 6.646 2.69434V21.6943C6.646 22.7989 7.72797 23.6943 9.06266 23.6943H19.9377C21.2724 23.6943 22.3543 22.7989 22.3543 21.6943V2.69434C22.3543 1.58977 21.2724 0.694336 19.9377 0.694336Z" stroke="#08538C" stroke-linecap="round" stroke-linejoin="round"/>
</g>
<defs>
<clipPath id="clip0_377_209">
<rect width="29" height="24" fill="white" transform="translate(0 0.194336)"/>
</clipPath>
</defs>
</svg>
