<svg width="19" height="19" viewBox="0 0 19 19" fill="none" xmlns="http://www.w3.org/2000/svg">
<path fill-rule="evenodd" clip-rule="evenodd" d="M11.6467 11.658C12.6515 10.6532 13.1539 9.44669 13.1539 8.03844C13.1539 6.63019 12.6534 5.42556 11.6524 4.42456C10.6514 3.42355 9.44675 2.92305 8.0385 2.92305C6.63025 2.92305 5.42562 3.42355 4.42462 4.42456C3.42362 5.42556 2.92312 6.63019 2.92312 8.03844C2.92312 9.44669 3.42362 10.6513 4.42462 11.6523C5.42562 12.6533 6.63025 13.1538 8.0385 13.1538C9.44675 13.1538 10.6495 12.6552 11.6467 11.658ZM19 17.5385C19 17.9343 18.8554 18.2768 18.5661 18.5661C18.2768 18.8554 17.9343 19 17.5385 19C17.1274 19 16.7849 18.8554 16.5108 18.5661L12.5943 14.6611C11.2318 15.605 9.71314 16.0769 8.03846 16.0769C6.94992 16.0769 5.90895 15.8657 4.91556 15.4432C3.92217 15.0207 3.0658 14.4498 2.34645 13.7305C1.6271 13.0111 1.05619 12.1547 0.633713 11.1614C0.211238 10.168 0 9.127 0 8.03846C0 6.94992 0.211238 5.90895 0.633713 4.91556C1.05619 3.92217 1.6271 3.0658 2.34645 2.34645C3.0658 1.6271 3.92217 1.05619 4.91556 0.633714C5.90895 0.211238 6.94992 0 8.03846 0C9.127 0 10.168 0.211238 11.1614 0.633714C12.1547 1.05619 13.0111 1.6271 13.7305 2.34645C14.4498 3.0658 15.0207 3.92217 15.4432 4.91556C15.8657 5.90895 16.0769 6.94992 16.0769 8.03846C16.0769 9.71314 15.605 11.2318 14.661 12.5944L18.5775 16.5108C18.8592 16.7925 19 17.135 19 17.5385L19 17.5385Z" fill="#007F4E"/>
</svg>
