<svg width="23" height="32" viewBox="0 0 23 32" fill="none" xmlns="http://www.w3.org/2000/svg">
<path d="M22.0645 8.09292H17.8567V6.31348C17.8567 2.94223 15.2062 0.208984 11.9371 0.208984C8.66784 0.208984 6.01742 2.94223 6.01742 6.31348V8.09292H1.46188C1.08581 8.09402 0.780853 8.40807 0.779785 8.79633V27.63C0.780639 29.572 2.30691 31.1459 4.18982 31.1466H19.3432C21.2263 31.1459 22.7526 29.572 22.753 27.63V8.79633C22.7488 8.40675 22.4419 8.09358 22.0645 8.09292ZM7.37456 6.30643C7.37456 3.71193 9.41443 1.60831 11.9301 1.60831C14.4464 1.60831 16.4858 3.71193 16.4858 6.30643V8.08587H7.37456V6.30643ZM21.3824 27.63C21.379 28.7941 20.465 29.7367 19.3366 29.74H4.1832C3.05435 29.7367 2.14034 28.7941 2.13714 27.63V9.49952H6.01058V12.3618C6.01058 12.7503 6.31618 13.0652 6.69246 13.0652C7.06917 13.0652 7.37456 12.7503 7.37456 12.3618V9.49952H16.4927V12.3618C16.4927 12.7503 16.7981 13.0652 17.1748 13.0652C17.5511 13.0652 17.8567 12.7503 17.8567 12.3618V9.49952H21.3824V27.63Z" fill="#08538C"/>
</svg>
