<svg width="56" height="51" viewBox="0 0 56 51" fill="none" xmlns="http://www.w3.org/2000/svg">
<path d="M38.5 9.5625H17.5C14.525 9.5625 12.25 7.49063 12.25 4.78125H43.75C43.75 7.49063 41.475 9.5625 38.5 9.5625Z" stroke="#444444" stroke-width="2" stroke-miterlimit="10" stroke-linecap="round" stroke-linejoin="round"/>
<path d="M17.5 41.4375H38.5C41.475 41.4375 43.75 43.5094 43.75 46.2188H12.25C12.25 43.5094 14.525 41.4375 17.5 41.4375Z" stroke="#444444" stroke-width="2" stroke-miterlimit="10" stroke-linecap="round" stroke-linejoin="round"/>
<path d="M40.2499 41.4375V35.0625C40.2499 34.1062 39.7249 33.15 38.8499 32.5125L32.3749 28.05C30.4499 26.775 30.4499 24.225 32.3749 22.95L38.8499 18.4875C39.7249 17.85 40.2499 16.8938 40.2499 15.9375V9.5625" stroke="#444444" stroke-width="2" stroke-miterlimit="10" stroke-linecap="round" stroke-linejoin="round"/>
<path d="M15.75 9.5625V15.9375C15.75 16.8938 16.275 17.85 17.15 18.4875L23.625 22.95C25.55 24.225 25.55 26.775 23.625 28.05L17.15 32.5125C16.275 33.15 15.75 34.1062 15.75 35.0625V41.4375" stroke="#444444" stroke-width="2" stroke-miterlimit="10" stroke-linecap="round" stroke-linejoin="round"/>
<path d="M19.25 41.4375L28 33.4688L36.75 41.4375H19.25Z" stroke="#444444" stroke-width="2" stroke-miterlimit="10" stroke-linecap="round" stroke-linejoin="round"/>
<path d="M28 19.125L22.75 15.9375H33.25L28 19.125Z" stroke="#444444" stroke-width="2" stroke-miterlimit="10" stroke-linecap="round" stroke-linejoin="round"/>
</svg>
